PathFileType	4	(X/Y/Z)	C:/Users/beibeiliu/ov580/test_trc/User2\sequence.31_training_dense_right.trc
DataRate	CameraRate	NumFrames	NumMarkers	Units	OrigDataRate	OrigDataStartFrame	OrigNumFrames
120	120	8	19	mm	120	1	83
Frame#	Time	ThumbCMC			ThumbMCP			ThumbIP			ThumbTip			IndexMCP			IndexPIP			IndexTip			MiddleMCP			MiddlePIP			MiddleTip			RingMCP			RingPIP			RingTip			PinkyMCP			PinkyPIP			PinkyTip			BackHand1			BackHand2			BackHand3	
		X0	Y0	Z0	X1	Y1	Z1	X2	Y2	Z2	X3	Y3	Z3	X4	Y4	Z4	X5	Y5	Z5	X6	Y6	Z6	X7	Y7	Z7	X8	Y8	Z8	X9	Y9	Z9	X10	Y10	Z10	X11	Y11	Z11	X12	Y12	Z12	X13	Y13	Z13	X14	Y14	Z14	X15	Y15	Z15	X16	Y16	Z16	X17	Y17	Z17	X18	Y18	Z18	
0	0	123.149	61.1359	-27.9377	102.873	60.7811	-67.3532	105.991	30.0499	-92.5099	119.62	3.83252	-86.7111	154.642	57.417	-105.327	152.28	56.4976	-136.44	151.284	57.8401	-160.329	162.049	35.2645	-112.467	158.65	39.4737	-142.724	158.8	36.597	-174.309	159.04	15.8825	-108.161	157.566	16.8389	-135.418	158.12	17.3495	-164.182	150.384	-1.89236	-93.3201	148.26	-0.770104	-118.669	151.721	0.669636	-139.347	165.369	12.4573	-49.5882	169.685	14.9422	-15.2537	162.266	48.3443	-32.4741	
1	0.00833333	102.209	47.134	-28.2498	87.6386	41.6851	-60.6266	105.656	21.835	-92.1635	127.076	2.84851	-93.2348	131.258	67.2312	-98.4769	129.608	72.8998	-128.681	130.687	71.4944	-156.823	147.64	55.8646	-105.083	145.708	61.8323	-140.312	148.356	64.1005	-170.034	156.877	36.9041	-106.221	160.711	34.487	-129.82	157.61	43.4852	-160.124	159.74	12.2253	-91.4314	160.656	16.3011	-119.315	159.712	24.5007	-141.73	162.547	26.3295	-47.0752	164.673	25.3566	-13.198	142.867	55.1407	-29.4306	
2	0.0166667	87.7845	33.2329	-22.1973	79.9404	27.2759	-60.92	99.9691	15.5632	-92.9248	127.146	5.32296	-90.9321	112.224	66.1906	-95.7103	107.163	72.5723	-121.015	110.099	74.266	-149.351	131.789	62.4297	-106.341	129.019	68.8846	-135.441	132.092	74.4491	-166.669	149.919	43.7713	-102.527	149.011	47.7162	-125.708	148.953	54.7549	-155.392	158.797	23.4746	-90.5149	160.134	25.3059	-115.208	160.052	34.1086	-135.877	155.11	33.8972	-45.8229	159.024	31.4314	-13.6718	128.24	53.1026	-25.0419	
3	0.025	79.9254	28.4356	-23.5953	69.608	19.658	-59.6445	95.3743	10.9193	-91.3965	123.974	2.81158	-91.4514	97.6572	63.2321	-92.6351	93.1627	68.5242	-124.106	96.1443	69.9669	-149.869	123.636	59.3671	-104.035	119.247	65.7963	-136.179	119.719	70.6916	-164.437	138.871	46.6103	-102.704	139.953	49.9303	-128.543	136.497	56.1002	-154.626	151.965	24.6547	-88.7799	152.184	26.4134	-112.279	153.904	36.541	-138.613	145.03	38.5743	-44.329	149.243	32.1201	-10.4133	114.244	53.063	-27.2911	
4	0.0333333	72.9414	25.8295	-23.2544	64.3117	13.3178	-57.1874	86.9508	2.85629	-88.7015	117.683	-3.70161	-87.1108	90.5816	56.2832	-97.0318	83.752	59.6321	-121.611	85.741	58.1811	-150.088	111.313	53.2971	-100.573	107.717	56.7212	-136.853	106.904	60.7004	-163.676	130.4	37.8602	-98.4086	128.181	42.3661	-129.27	127.267	47.4445	-156.653	146.176	17.2838	-86.5143	143.995	21.8389	-116.112	143.815	26.886	-139.655	138.562	33.8334	-41.4536	146.358	31.9192	-10.3514	112.26	47.438	-24.4169	
5	0.0416667	66.1881	21.1588	-21.5809	57.0606	5.88367	-51.6026	74.4459	-9.37854	-79.0753	104.056	-16.5555	-81.3061	78.1126	42.9737	-96.3199	76.7125	40.6197	-125.277	68.6671	41.0624	-153.189	104.043	37.6669	-102.651	100.22	37.2385	-135.145	95.1292	37.8993	-163.73	119.173	24.1763	-101.887	120.733	22.5161	-126.974	113.439	24.0155	-153.467	136.377	4.7774	-88.4131	131.202	5.01334	-110.902	132.115	8.09751	-140.057	133.876	23.4418	-44.8614	136.155	27.3611	-13.4222	104.577	42.2928	-29.4066	
6	0.05	60.1341	20.2563	-16.4404	42.1848	3.65044	-45.8992	59.588	-19.4257	-74.9156	88.9219	-31.7008	-74.6934	67.4745	28.4568	-95.9415	57.9973	25.0828	-123.578	56.9383	16.293	-149.483	87.6516	20.6714	-103.441	80.9607	14.3372	-133.456	76.1071	9.94517	-163.562	107.257	1.87855	-101.338	103.212	-3.62593	-125.178	96.5264	-6.27071	-151.064	117.754	-13.7054	-81.6393	114.254	-19.8603	-110.073	109.574	-19.6729	-136.288	121.324	14.2044	-42.3216	126.947	20.7119	-12.5706	95.8331	36.5472	-30.252	
7	0.0583333	56.3145	31.2336	-9.33745	33.9037	12.5851	-38.5613	43.1443	-17.3105	-62.3307	70.5189	-35.5594	-63.3905	57.1414	25.6671	-94.0174	46.642	15.0653	-120.636	37.6226	7.21301	-145.647	74.0901	7.17311	-102.198	61.7276	-0.385405	-129.491	54.1526	-10.0619	-160.557	88.3586	-13.9175	-96.8629	80.8559	-22.0159	-119.893	68.7913	-23.7595	-142.82	98.1954	-27.1007	-74.1834	88.6614	-33.8039	-97.7707	84.3606	-38.5103	-124.568	111.047	5.17215	-46.1085	123.73	14.5608	-12.5457	93.9798	37.5086	-29.4447	
